<mxfile host="Electron" modified="2024-06-02T14:59:27.469Z" agent="Mozilla/5.0 (Windows NT 10.0; Win64; x64) AppleWebKit/537.36 (KHTML, like Gecko) draw.io/24.2.5 Chrome/120.0.6099.109 Electron/28.1.0 Safari/537.36" etag="8bN5xUBjRiljhMeGbM26" version="24.2.5" type="device">
  <diagram name="Page-1" id="4NebPsCs22ycQVQq0jrq">
    <mxGraphModel dx="880" dy="532" grid="1" gridSize="10" guides="1" tooltips="1" connect="1" arrows="1" fold="1" page="1" pageScale="1" pageWidth="850" pageHeight="1100" math="0" shadow="0">
      <root>
        <mxCell id="0" />
        <mxCell id="1" parent="0" />
        <mxCell id="KusiTmuWzXdYnRjIjSy3-2" value="start" style="rounded=1;whiteSpace=wrap;html=1;fillColor=#d5e8d4;strokeColor=#82b366;gradientColor=#97d077;" vertex="1" parent="1">
          <mxGeometry x="160" y="40" width="120" height="60" as="geometry" />
        </mxCell>
        <mxCell id="KusiTmuWzXdYnRjIjSy3-3" value="user visits OneStop website&amp;nbsp;" style="rounded=0;whiteSpace=wrap;html=1;" vertex="1" parent="1">
          <mxGeometry x="75" y="150" width="350" height="20" as="geometry" />
        </mxCell>
        <mxCell id="KusiTmuWzXdYnRjIjSy3-5" value="" style="shape=singleArrow;direction=south;whiteSpace=wrap;html=1;" vertex="1" parent="1">
          <mxGeometry x="215" y="100" width="10" height="50" as="geometry" />
        </mxCell>
        <mxCell id="KusiTmuWzXdYnRjIjSy3-8" value="chatbot provides instant information&amp;nbsp;" style="rounded=0;whiteSpace=wrap;html=1;" vertex="1" parent="1">
          <mxGeometry x="115" y="640" width="180" height="50" as="geometry" />
        </mxCell>
        <mxCell id="KusiTmuWzXdYnRjIjSy3-11" value="user logs in&amp;nbsp;" style="rounded=0;whiteSpace=wrap;html=1;" vertex="1" parent="1">
          <mxGeometry x="97.5" y="230" width="245" height="30" as="geometry" />
        </mxCell>
        <mxCell id="KusiTmuWzXdYnRjIjSy3-12" value="chatbot option selected ?" style="rhombus;whiteSpace=wrap;html=1;fillColor=#f8cecc;gradientColor=#ea6b66;strokeColor=#b85450;" vertex="1" parent="1">
          <mxGeometry x="155" y="440" width="120" height="90" as="geometry" />
        </mxCell>
        <mxCell id="KusiTmuWzXdYnRjIjSy3-14" value="" style="shape=singleArrow;whiteSpace=wrap;html=1;" vertex="1" parent="1">
          <mxGeometry x="280" y="335" width="50" height="20" as="geometry" />
        </mxCell>
        <mxCell id="KusiTmuWzXdYnRjIjSy3-15" value="NO" style="text;html=1;align=center;verticalAlign=middle;whiteSpace=wrap;rounded=0;" vertex="1" parent="1">
          <mxGeometry x="270" y="300" width="60" height="30" as="geometry" />
        </mxCell>
        <mxCell id="KusiTmuWzXdYnRjIjSy3-16" value="user searches for FAQs&amp;nbsp;" style="rounded=0;whiteSpace=wrap;html=1;" vertex="1" parent="1">
          <mxGeometry x="470" y="460" width="180" height="20" as="geometry" />
        </mxCell>
        <mxCell id="KusiTmuWzXdYnRjIjSy3-17" value="user finds relevant policy information&amp;nbsp;" style="rounded=0;whiteSpace=wrap;html=1;" vertex="1" parent="1">
          <mxGeometry x="460" y="317.5" width="180" height="45" as="geometry" />
        </mxCell>
        <mxCell id="KusiTmuWzXdYnRjIjSy3-18" value="user requests&amp;nbsp; procedural request&amp;nbsp;" style="rhombus;whiteSpace=wrap;html=1;fillColor=#f8cecc;gradientColor=#ea6b66;strokeColor=#b85450;" vertex="1" parent="1">
          <mxGeometry x="110" y="730" width="170" height="130" as="geometry" />
        </mxCell>
        <mxCell id="KusiTmuWzXdYnRjIjSy3-19" value="&quot;Website provides link to downloadable&amp;nbsp;&lt;div&gt;clear PDF document containing the requested university procedure with detailed step-by-step instructions.&quot;&lt;/div&gt;" style="rounded=1;whiteSpace=wrap;html=1;" vertex="1" parent="1">
          <mxGeometry x="100" y="940" width="170" height="120" as="geometry" />
        </mxCell>
        <mxCell id="KusiTmuWzXdYnRjIjSy3-20" value="user accesses desired resources&amp;nbsp;" style="rounded=0;whiteSpace=wrap;html=1;" vertex="1" parent="1">
          <mxGeometry x="470" y="630" width="180" height="50" as="geometry" />
        </mxCell>
        <mxCell id="KusiTmuWzXdYnRjIjSy3-21" value="user logs out&amp;nbsp;" style="rounded=0;whiteSpace=wrap;html=1;" vertex="1" parent="1">
          <mxGeometry x="460" y="950" width="180" height="20" as="geometry" />
        </mxCell>
        <mxCell id="KusiTmuWzXdYnRjIjSy3-22" value="end&amp;nbsp;" style="rounded=1;whiteSpace=wrap;html=1;fillColor=#a20025;fontColor=#ffffff;strokeColor=#6F0000;" vertex="1" parent="1">
          <mxGeometry x="520" y="1020" width="60" height="20" as="geometry" />
        </mxCell>
        <mxCell id="KusiTmuWzXdYnRjIjSy3-24" value="" style="shape=singleArrow;direction=south;whiteSpace=wrap;html=1;" vertex="1" parent="1">
          <mxGeometry x="215" y="170" width="10" height="50" as="geometry" />
        </mxCell>
        <mxCell id="KusiTmuWzXdYnRjIjSy3-25" value="" style="shape=singleArrow;direction=south;whiteSpace=wrap;html=1;" vertex="1" parent="1">
          <mxGeometry x="210" y="260" width="10" height="50" as="geometry" />
        </mxCell>
        <mxCell id="KusiTmuWzXdYnRjIjSy3-27" value="" style="edgeStyle=orthogonalEdgeStyle;rounded=0;orthogonalLoop=1;jettySize=auto;html=1;" edge="1" parent="1" source="KusiTmuWzXdYnRjIjSy3-25" target="KusiTmuWzXdYnRjIjSy3-9">
          <mxGeometry relative="1" as="geometry">
            <mxPoint x="215" y="300" as="sourcePoint" />
            <mxPoint x="200" y="355" as="targetPoint" />
          </mxGeometry>
        </mxCell>
        <mxCell id="KusiTmuWzXdYnRjIjSy3-9" value="user navigates to relevant section&lt;div&gt;for university resources&amp;nbsp;&amp;nbsp;&lt;/div&gt;" style="rounded=0;whiteSpace=wrap;html=1;" vertex="1" parent="1">
          <mxGeometry x="70" y="310" width="280" height="60" as="geometry" />
        </mxCell>
        <mxCell id="KusiTmuWzXdYnRjIjSy3-28" value="" style="shape=singleArrow;whiteSpace=wrap;html=1;" vertex="1" parent="1">
          <mxGeometry x="295" y="460" width="120" height="30" as="geometry" />
        </mxCell>
        <mxCell id="KusiTmuWzXdYnRjIjSy3-29" value="" style="shape=singleArrow;whiteSpace=wrap;html=1;" vertex="1" parent="1">
          <mxGeometry x="360" y="320" width="100" height="30" as="geometry" />
        </mxCell>
        <mxCell id="KusiTmuWzXdYnRjIjSy3-30" value="" style="shape=singleArrow;direction=south;whiteSpace=wrap;html=1;" vertex="1" parent="1">
          <mxGeometry x="210" y="380" width="10" height="50" as="geometry" />
        </mxCell>
        <mxCell id="KusiTmuWzXdYnRjIjSy3-31" value="YES" style="text;html=1;align=center;verticalAlign=middle;whiteSpace=wrap;rounded=0;" vertex="1" parent="1">
          <mxGeometry x="210" y="570" width="60" height="30" as="geometry" />
        </mxCell>
        <mxCell id="KusiTmuWzXdYnRjIjSy3-32" value="NO" style="text;html=1;align=center;verticalAlign=middle;whiteSpace=wrap;rounded=0;" vertex="1" parent="1">
          <mxGeometry x="320" y="450" width="60" height="30" as="geometry" />
        </mxCell>
        <mxCell id="KusiTmuWzXdYnRjIjSy3-33" value="" style="shape=singleArrow;direction=south;whiteSpace=wrap;html=1;" vertex="1" parent="1">
          <mxGeometry x="190" y="870" width="10" height="70" as="geometry" />
        </mxCell>
        <mxCell id="KusiTmuWzXdYnRjIjSy3-34" value="" style="shape=singleArrow;direction=south;whiteSpace=wrap;html=1;" vertex="1" parent="1">
          <mxGeometry x="210" y="550" width="10" height="80" as="geometry" />
        </mxCell>
        <mxCell id="KusiTmuWzXdYnRjIjSy3-37" value="" style="shape=singleArrow;whiteSpace=wrap;html=1;" vertex="1" parent="1">
          <mxGeometry x="320" y="650" width="120" height="30" as="geometry" />
        </mxCell>
        <mxCell id="KusiTmuWzXdYnRjIjSy3-38" value="" style="shape=singleArrow;whiteSpace=wrap;html=1;" vertex="1" parent="1">
          <mxGeometry x="305" y="960" width="120" height="30" as="geometry" />
        </mxCell>
        <mxCell id="KusiTmuWzXdYnRjIjSy3-40" value="" style="shape=singleArrow;direction=south;whiteSpace=wrap;html=1;" vertex="1" parent="1">
          <mxGeometry x="545" y="980" width="10" height="30" as="geometry" />
        </mxCell>
      </root>
    </mxGraphModel>
  </diagram>
</mxfile>
